<svg width="25" height="24" viewBox="0 0 25 24" fill="none" xmlns="http://www.w3.org/2000/svg">
<path d="M20.7803 22.75C21.8848 22.75 22.7803 21.8546 22.7803 20.75C22.7803 19.6454 21.8848 18.75 20.7803 18.75C19.6757 18.75 18.7803 19.6454 18.7803 20.75C18.7803 21.8546 19.6757 22.75 20.7803 22.75Z" fill="#FED014"/>
<path d="M15.3699 22.3899C15.1454 22.3982 14.9247 22.3307 14.7433 22.1983C14.5619 22.0659 14.4304 21.8762 14.3699 21.6599L13.3699 17.9599L11.5699 15.8799C11.4791 15.7815 11.4089 15.6659 11.3636 15.5399C11.3183 15.4138 11.2988 15.28 11.3062 15.1463C11.3136 15.0126 11.3478 14.8817 11.4068 14.7615C11.4657 14.6412 11.5482 14.5341 11.6494 14.4463C11.7505 14.3585 11.8683 14.292 11.9956 14.2506C12.123 14.2092 12.2574 14.1938 12.3908 14.2054C12.5242 14.2169 12.654 14.2551 12.7723 14.3177C12.8907 14.3804 12.9953 14.4661 13.0799 14.5699L15.0799 16.8199C15.1746 16.9336 15.2429 17.0668 15.2799 17.2099L16.3299 21.1699C16.3648 21.2967 16.3744 21.429 16.3581 21.5595C16.3418 21.6899 16.2999 21.8158 16.2349 21.9301C16.1699 22.0443 16.083 22.1446 15.9792 22.2252C15.8754 22.3059 15.7567 22.3652 15.6299 22.3999C15.5433 22.4118 15.4553 22.4084 15.3699 22.3899Z" fill="#FFC645"/>
<path d="M9.06016 19.4599C8.91866 19.4593 8.77892 19.4286 8.65016 19.3699L4.28016 17.4199C4.03749 17.3112 3.84795 17.1105 3.75324 16.862C3.65854 16.6135 3.66642 16.3376 3.77516 16.0949C3.8839 15.8523 4.08458 15.6627 4.33307 15.568C4.58156 15.4733 4.85749 15.4812 5.10016 15.5899L8.52016 17.1699L9.22016 15.4599C9.25279 15.321 9.31479 15.1906 9.40201 15.0775C9.48923 14.9645 9.59964 14.8715 9.72582 14.8047C9.85199 14.7379 9.99101 14.6989 10.1335 14.6903C10.276 14.6817 10.4187 14.7037 10.552 14.7549C10.6853 14.806 10.8061 14.8851 10.9062 14.9868C11.0064 15.0886 11.0836 15.2106 11.1327 15.3446C11.1818 15.4787 11.2016 15.6217 11.1908 15.7641C11.18 15.9064 11.1389 16.0448 11.0702 16.1699L9.98016 18.8399C9.92987 18.9637 9.85529 19.0761 9.76083 19.1706C9.66636 19.2651 9.55393 19.3397 9.43016 19.3899C9.31123 19.4324 9.18639 19.4561 9.06016 19.4599Z" fill="#FFC645"/>
<path d="M14.4597 11.4201C14.3354 11.4211 14.2124 11.3957 14.0986 11.3457C13.9849 11.2958 13.883 11.2222 13.7997 11.1301L11.1397 8.29005C11.0582 8.20309 10.9948 8.10081 10.9532 7.98915C10.9116 7.87749 10.8925 7.75868 10.8972 7.6396C10.9018 7.52053 10.9301 7.40356 10.9803 7.29549C11.0305 7.18742 11.1017 7.0904 11.1897 7.01005C11.2725 6.9257 11.3714 6.85869 11.4804 6.81295C11.5894 6.76721 11.7065 6.74365 11.8247 6.74365C11.9429 6.74365 12.06 6.76721 12.169 6.81295C12.278 6.85869 12.3768 6.9257 12.4597 7.01005L14.5397 9.24005L17.2997 7.01005C17.3928 6.93521 17.5 6.87986 17.6149 6.84732C17.7298 6.81478 17.8501 6.8057 17.9686 6.82063C18.0871 6.83556 18.2014 6.87419 18.3047 6.93422C18.408 6.99425 18.4981 7.07446 18.5697 7.17005C18.6443 7.26245 18.6999 7.3687 18.7333 7.48269C18.7667 7.59668 18.7772 7.71615 18.7642 7.83421C18.7511 7.95227 18.7149 8.06658 18.6575 8.17056C18.6001 8.27454 18.5227 8.36613 18.4297 8.44005L15.0197 11.2001C14.8622 11.3328 14.6654 11.4101 14.4597 11.4201Z" fill="#FFC645"/>
<path d="M8.79992 14.24L8.16992 16.17L11.2099 17.59L12.2299 14.96L8.79992 14.24Z" fill="#222836"/>
<path d="M9.09968 14.95C9.09968 14.95 8.31968 14.24 8.79968 12.41L12.9197 13L13.1897 14.1L14.4597 15.43L11.9097 17.43L9.09968 14.95Z" fill="#2A3F4D"/>
<path d="M14.6598 8.50998L13.0298 10.51L11.5498 8.67998L12.6698 6.94998C12.6698 6.94998 13.1498 6.83998 14.6598 8.50998Z" fill="#2A3F4D"/>
<path d="M12.46 6.31006C13.5645 6.31006 14.46 5.41463 14.46 4.31006C14.46 3.20549 13.5645 2.31006 12.46 2.31006C11.3554 2.31006 10.46 3.20549 10.46 4.31006C10.46 5.41463 11.3554 6.31006 12.46 6.31006Z" fill="#FFC645"/>
<path d="M13.45 12.8L13.39 11.54V11.48C13.47 9.22996 13.47 7.84996 12.85 6.84996C12.7635 6.72226 12.6368 6.6272 12.49 6.57996L11.19 6.10996C10.57 5.99996 9.53999 6.97996 9.42999 7.58996C8.76832 9.08397 8.01695 10.5366 7.17999 11.94C7.1315 12.0247 7.10076 12.1185 7.08964 12.2155C7.07852 12.3125 7.08726 12.4108 7.11533 12.5044C7.14339 12.5979 7.19019 12.6848 7.25288 12.7596C7.31557 12.8345 7.39284 12.8959 7.47999 12.94C8.19999 13.26 9.70999 13.63 12.78 13.52C12.9639 13.5122 13.1373 13.4322 13.2627 13.2975C13.3881 13.1627 13.4554 12.984 13.45 12.8Z" fill="#FF4D37"/>
<path d="M10.7305 12.7501C10.5439 12.7474 10.3625 12.6881 10.2105 12.5801L7.21046 10.5001C7.09278 10.4158 6.99689 10.3048 6.93074 10.1761C6.86459 10.0474 6.83008 9.90476 6.83008 9.76006C6.83008 9.61535 6.86459 9.47273 6.93074 9.34404C6.99689 9.21534 7.09278 9.10427 7.21046 9.02006L10.2105 6.93006C10.4061 6.83066 10.6312 6.80613 10.8436 6.8611C11.0561 6.91606 11.2411 7.04673 11.3639 7.22853C11.4868 7.41033 11.539 7.63074 11.5107 7.84832C11.4824 8.0659 11.3757 8.26567 11.2105 8.41006L9.32046 9.76006L11.2405 11.1101C11.398 11.2191 11.5166 11.3756 11.5791 11.5568C11.6415 11.738 11.6445 11.9343 11.5876 12.1173C11.5307 12.3003 11.4169 12.4603 11.2627 12.5741C11.1086 12.6879 10.9221 12.7496 10.7305 12.7501Z" fill="#FFC645"/>
<path d="M16.7905 21.39H14.4905C14.0707 21.39 13.7305 21.7303 13.7305 22.15V22.52C13.7305 22.9398 14.0707 23.28 14.4905 23.28H16.7905C17.2102 23.28 17.5505 22.9398 17.5505 22.52V22.15C17.5505 21.7303 17.2102 21.39 16.7905 21.39Z" fill="#FF4D37"/>
<path d="M4.52751 18.261L5.52565 16.1889C5.7078 15.8107 5.54892 15.3565 5.17077 15.1743L4.83742 15.0138C4.45927 14.8316 4.00505 14.9905 3.8229 15.3686L2.82476 17.4408C2.64261 17.8189 2.80149 18.2731 3.17964 18.4553L3.51299 18.6159C3.89114 18.798 4.34536 18.6391 4.52751 18.261Z" fill="#FF4D37"/>
<path d="M8.16992 8.01004L10.4599 9.76004L11.7999 8.55004C11.7999 8.55004 12.6899 7.55004 11.7999 6.83004C11.5212 6.64045 11.192 6.53906 10.8549 6.53906C10.5179 6.53906 10.1886 6.64045 9.90992 6.83004C9.30411 7.1839 8.7228 7.57813 8.16992 8.01004Z" fill="#2A3F4D"/>
<path d="M10.2599 3.82997C10.2599 3.82997 7.99988 3.24997 7.12988 4.93997C6.25988 6.62997 5.12988 6.50997 5.12988 6.50997C5.62274 6.72851 6.1575 6.83638 6.69654 6.82602C7.23557 6.81565 7.76579 6.68729 8.24988 6.44997C9.54988 5.58997 9.24988 4.75997 10.2499 4.16997L10.2599 3.82997Z" fill="#2A3F4D"/>
<path d="M10.4095 3.72998H10.2695V4.20998H10.4095V3.72998Z" fill="#FF4D37"/>
<path d="M10.4603 3.30999C10.4603 3.30999 10.2403 5.00999 10.9803 5.64999L11.8003 5.35999C11.8003 5.35999 11.1403 4.69999 11.4203 4.30999C11.7003 3.91999 12.0303 4.47999 12.0303 4.47999L12.6203 3.62999C12.6937 3.50378 12.7913 3.3933 12.9074 3.30487C13.0236 3.21643 13.1561 3.15179 13.2973 3.11463C13.4385 3.07747 13.5856 3.06854 13.7303 3.08833C13.8749 3.10813 14.0143 3.15627 14.1403 3.22999C14.1403 3.22999 14.1403 1.99999 12.4603 1.99999C12.0258 1.94642 11.5864 2.04866 11.2202 2.28851C10.854 2.52837 10.5848 2.89031 10.4603 3.30999Z" fill="#2A3F4D"/>
</svg>
