<svg width="24" height="24" viewBox="0 0 24 24" fill="none" xmlns="http://www.w3.org/2000/svg">
<path d="M16.7401 2.96998C15.7475 2.97182 14.7756 3.25451 13.9368 3.78538C13.098 4.31625 12.4266 5.07363 12.0001 5.96998C11.4907 4.88762 10.6268 4.0117 9.55164 3.48724C8.47646 2.96279 7.25441 2.82125 6.08782 3.08607C4.92122 3.35088 3.88005 4.00617 3.13668 4.94344C2.39331 5.8807 1.99233 7.04374 2.00011 8.23998C2.00011 15.6 12.0001 20.92 12.0001 20.92C12.0001 20.92 22.0001 15.6 22.0001 8.23998C22.0001 6.84402 21.4463 5.50509 20.4601 4.51706C19.4739 3.52903 18.1361 2.97263 16.7401 2.96998Z" fill="#FF4D37"/>
</svg>
